:SAMPLES-PER-SECOND 30
:FULLY-SPECIFIED
:DEGREES
270
root  7.37491 40.1203 -82.6967 178.367 5.86401 179.318
RightUpLeg  -2.57374 0.80907 1.9874
RightLeg  1.28948 9.13298 0.885329
RightFoot  1.70597 0.112682 -0.971175
RightToes  3.97569e-016 -3.18055e-015 -2.98177e-016
Spine  1.06819 -0.894933 -2.01688
Spine1  4.91968 -1.49319 2.8677
HEad  -11.0859 6.05976 0.0123691
LeftShoulder1  -3.88251e-019 9.70628e-020 -3.87848e-018
LeftArm  -31.0197 59.2088 -72.7606
LeftForeArm  -5.22384 -9.49232 -2.79889
LeftHand  -0.49761 -2.17477 8.22997
RightShoulder  8.48948 10.9492 39.3179
RightArm  16.1452 -42.67 1.79495
RightForeArm  2.19786 15.409 -4.21992
RightHand  -0.906626 1.62809 -14.744
LeftUpLeg  -1.70622 -2.96185 -3.91751
LeftLeg  2.21336 1.6763 1.30752
LeftFoot  -0.279879 -0.215084 1.90965
LeftToes  4.86531e-011 4.41684e-011 -2.86034e-011
271
root  7.39331 40.1095 -82.8117 178.319 5.93332 179.321
RightUpLeg  -2.55843 0.760096 1.98015
RightLeg  1.57767 9.19421 0.865518
RightFoot  1.28388 0.0754975 -0.69615
RightToes  3.97569e-016 -3.18055e-015 -2.98177e-016
Spine  1.05646 -0.877123 -2.30316
Spine1  5.25469 -1.59549 3.42096
HEad  -11.7246 5.44843 0.20241
LeftShoulder1  -3.88251e-019 9.70628e-020 -3.87848e-018
LeftArm  -31.662 58.9031 -72.3581
LeftForeArm  -5.05083 -6.84707 -2.63006
LeftHand  -0.4963 -1.48991 9.03323
RightShoulder  8.54359 10.9793 39.508
RightArm  18.6855 -42.0363 3.25218
RightForeArm  -1.81673 17.1906 -5.54566
RightHand  -0.959139 1.83611 -15.1561
LeftUpLeg  -1.70181 -2.98092 -3.90814
LeftLeg  2.54315 1.73579 1.42708
LeftFoot  -0.737678 -0.185259 1.69385
LeftToes  4.86531e-011 4.41684e-011 -2.86034e-011
272
root  7.40143 40.1032 -82.8992 178.327 6.17862 179.33
RightUpLeg  -2.60033 0.77487 2.00357
RightLeg  1.71928 9.38676 0.82951
RightFoot  0.925543 0.0308219 -0.344108
RightToes  3.97569e-016 -3.18055e-015 -2.98177e-016
Spine  1.00234 -0.632936 -2.50817
Spine1  5.52375 -1.47274 4.01792
HEad  -12.5535 4.86683 0.0702636
LeftShoulder1  -3.88251e-019 9.70628e-020 -3.87848e-018
LeftArm  -31.9564 58.9907 -72.1412
LeftForeArm  -5.14189 -5.942 -2.48651
LeftHand  -0.462385 -1.04191 9.02644
RightShoulder  8.49645 10.9526 39.3432
RightArm  21.6888 -41.7382 4.88262
RightForeArm  -5.31434 18.804 -7.25651
RightHand  -1.02096 2.16923 -15.437
LeftUpLeg  -1.62254 -2.96112 -3.87345
LeftLeg  2.67168 1.99776 1.45185
LeftFoot  -1.30536 -0.143198 1.35307
LeftToes  4.86531e-011 4.41684e-011 -2.86034e-011
273
root  7.38928 40.1049 -82.8621 178.42 6.58052 179.323
RightUpLeg  -2.78307 0.843387 2.03953
RightLeg  1.95255 9.68253 0.745334
RightFoot  0.517777 -0.015202 0.0404871
RightToes  3.97569e-016 -3.18055e-015 -2.98177e-016
Spine  0.922751 -0.295155 -2.57167
Spine1  5.56009 -1.20661 4.41446
HEad  -12.8169 4.2692 -0.165444
LeftShoulder1  -3.88251e-019 9.70628e-020 -3.87848e-018
LeftArm  -31.5802 59.6059 -71.8582
LeftForeArm  -5.59961 -6.65224 -2.52922
LeftHand  -0.450819 -1.04361 8.80629
RightShoulder  8.37303 10.885 38.9044
RightArm  23.6223 -41.5494 6.84521
RightForeArm  -6.70748 19.8066 -8.57191
RightHand  -1.05207 2.41242 -15.4225
LeftUpLeg  -1.52855 -2.97065 -3.88891
LeftLeg  2.65096 2.59316 1.47099
LeftFoot  -1.94564 -0.0892655 0.860365
LeftToes  4.86531e-011 4.41684e-011 -2.86034e-011
274
root  7.37167 40.1148 -82.8774 178.51 6.99821 179.288
RightUpLeg  -2.99126 0.851628 1.99631
RightLeg  2.30165 9.97616 0.688244
RightFoot  -0.0634272 -0.0808463 0.630314
RightToes  3.97569e-016 -3.18055e-015 -2.98177e-016
Spine  0.831419 0.00709683 -2.37847
Spine1  5.47933 -0.872651 4.32018
HEad  -12.478 3.4048 -0.34009
LeftShoulder1  -3.88251e-019 9.70628e-020 -3.87848e-018
LeftArm  -30.6542 60.4678 -71.4001
LeftForeArm  -5.94987 -8.34785 -2.71002
LeftHand  -0.508864 -1.66216 9.02706
RightShoulder  8.25454 10.8211 38.4768
RightArm  23.8506 -41.2212 9.15586
RightForeArm  -5.51409 20.0989 -9.02984
RightHand  -1.07148 2.68008 -15.2013
LeftUpLeg  -1.4141 -2.98433 -3.95172
LeftLeg  2.61373 3.27063 1.49035
LeftFoot  -2.69777 -0.0440168 0.4091
LeftToes  4.86531e-011 4.41684e-011 -2.86034e-011
275
root  7.36119 40.1285 -83.0248 178.553 7.27126 179.242
RightUpLeg  -3.11852 0.820028 1.90522
RightLeg  2.60396 10.0921 0.638709
RightFoot  -0.742689 -0.167735 1.48193
RightToes  3.97569e-016 -3.18055e-015 -2.98177e-016
Spine  0.732396 0.218189 -1.92928
Spine1  5.39927 -0.525276 3.72039
HEad  -11.8685 2.42552 -0.24165
LeftShoulder1  -3.88251e-019 9.70628e-020 -3.87848e-018
LeftArm  -29.68 61.1617 -70.8563
LeftForeArm  -5.88292 -10.1856 -2.8156
LeftHand  -0.615382 -2.59404 9.59935
RightShoulder  8.22744 10.8053 38.381
RightArm  22.9427 -40.6249 11.4636
RightForeArm  -2.98041 19.8739 -8.7677
RightHand  -1.12247 3.12635 -15.1074
LeftUpLeg  -1.27326 -2.9805 -4.01666
LeftLeg  2.58448 3.67694 1.47344
LeftFoot  -3.50991 -0.0211477 0.183557
LeftToes  4.86531e-011 4.41684e-011 -2.86034e-011
276
root  7.34321 40.1369 -83.0937 178.544 7.35638 179.219
RightUpLeg  -3.14179 0.832102 1.87147
RightLeg  2.84175 9.96255 0.517563
RightFoot  -1.45964 -0.253939 2.43373
RightToes  3.97569e-016 -3.18055e-015 -2.98177e-016
Spine  0.653969 0.360294 -1.26285
Spine1  5.31856 -0.163253 2.73378
HEad  -11.2741 1.31504 0.157217
LeftShoulder1  -3.88251e-019 9.70628e-020 -3.87848e-018
LeftArm  -28.8841 61.4137 -70.2724
LeftForeArm  -5.5326 -11.5389 -2.7812
LeftHand  -0.688589 -3.24282 9.9062
RightShoulder  8.31134 10.8497 38.6867
RightArm  21.6533 -39.8393 13.4166
RightForeArm  -0.618001 19.4129 -8.09788
RightHand  -1.19803 3.59223 -15.3023
LeftUpLeg  -1.09231 -3.02418 -4.09429
LeftLeg  2.50637 3.8086 1.46759
LeftFoot  -4.09735 -0.0132581 0.113027
LeftToes  4.86531e-011 4.41684e-011 -2.86034e-011
277
root  7.31059 40.1353 -83.0445 178.487 7.28357 179.253
RightUpLeg  -3.05668 0.815568 1.87907
RightLeg  3.07393 9.77787 0.427918
RightFoot  -2.09086 -0.304172 3.10589
RightToes  3.97569e-016 -3.18055e-015 -2.98177e-016
Spine  0.625928 0.466761 -0.351776
Spine1  5.20626 0.234297 1.40947
HEad  -10.5773 -0.161209 0.767485
LeftShoulder1  -3.88251e-019 9.70628e-020 -3.87848e-018
LeftArm  -28.1711 61.1589 -69.6714
LeftForeArm  -5.0411 -12.2392 -2.73909
LeftHand  -0.686632 -3.38317 9.71637
RightShoulder  8.47764 10.9438 39.2731
RightArm  20.3948 -39.0367 14.9283
RightForeArm  1.16614 18.9183 -7.32298
RightHand  -1.24256 3.82587 -15.4753
LeftUpLeg  -0.896971 -3.11102 -4.16369
LeftLeg  2.41599 3.81053 1.5191
LeftFoot  -4.10623 -0.0093162 0.081741
LeftToes  4.86531e-011 4.41684e-011 -2.86034e-011
278
root  7.28279 40.1256 -83.1139 178.421 7.06213 179.353
RightUpLeg  -2.90601 0.684567 1.85004
RightLeg  3.24038 9.74773 0.515733
RightFoot  -2.26651 -0.289366 3.01264
RightToes  3.97569e-016 -3.18055e-015 -2.98177e-016
Spine  0.582909 0.550697 0.620622
Spine1  5.15059 0.610083 0.0457622
HEad  -9.77918 -1.80834 1.41105
LeftShoulder1  -3.88251e-019 9.70628e-020 -3.87848e-018
LeftArm  -27.6572 60.4879 -69.3372
LeftForeArm  -4.40364 -12.476 -2.78663
LeftHand  -0.658446 -3.31675 9.39979
RightShoulder  8.66381 11.0518 39.9142
RightArm  19.3627 -38.3581 16.1242
RightForeArm  2.70609 18.555 -6.77001
RightHand  -1.22212 3.80077 -15.2632
LeftUpLeg  -0.8163 -3.12063 -4.14013
LeftLeg  2.46616 3.61868 1.57914
LeftFoot  -3.53531 -0.0211457 0.214092
LeftToes  4.86531e-011 4.41684e-011 -2.86034e-011
279
root  7.26577 40.1088 -83.283 178.377 6.72627 179.451
RightUpLeg  -2.77684 0.590148 1.8228
RightLeg  3.29308 9.77832 0.617355
RightFoot  -1.7952 -0.207077 2.05595
RightToes  3.97569e-016 -3.18055e-015 -2.98177e-016
Spine  0.431059 0.634202 1.21272
Spine1  5.29968 0.873017 -0.812655
HEad  -9.27535 -3.02636 1.93907
LeftShoulder1  -3.88251e-019 9.70628e-020 -3.87848e-018
LeftArm  -27.5991 59.5897 -69.5869
LeftForeArm  -3.72552 -12.5555 -2.86213
LeftHand  -0.652565 -3.35889 9.27278
RightShoulder  8.77348 11.1152 40.2873
RightArm  18.7411 -37.9088 17.2334
RightForeArm  3.96116 18.4394 -6.64271
RightHand  -1.17143 3.69496 -14.8057
LeftUpLeg  -0.905492 -3.04886 -4.0703
LeftLeg  2.70818 3.19329 1.61704
LeftFoot  -2.86302 -0.0612299 0.641431
LeftToes  4.86531e-011 4.41684e-011 -2.86034e-011
280
root  7.24274 40.0867 -83.2987 178.3 6.37178 179.445
RightUpLeg  -2.67246 0.704058 1.85793
RightLeg  3.33129 9.65137 0.450491
RightFoot  -1.09029 -0.0943058 0.838909
RightToes  3.97569e-016 -3.18055e-015 -2.98177e-016
Spine  0.184696 0.727223 1.2373
Spine1  5.67648 1.01767 -1.04553
HEad  -9.23247 -3.71059 2.33104
LeftShoulder1  -3.88251e-019 9.70628e-020 -3.87848e-018
LeftArm  -27.8646 58.6617 -70.2656
LeftForeArm  -3.22822 -12.7031 -2.89892
LeftHand  -0.65415 -3.42859 9.22104
RightShoulder  8.77125 11.1141 40.2791
RightArm  18.5739 -37.6762 18.3653
RightForeArm  4.58046 18.5061 -6.77517
RightHand  -1.15234 3.68899 -14.5774
LeftUpLeg  -0.965568 -3.05609 -4.13874
LeftLeg  2.96291 2.77975 1.67667
LeftFoot  -2.5531 -0.108155 1.13896
LeftToes  4.86531e-011 4.41684e-011 -2.86034e-011
281
root  7.21625 40.0702 -83.2486 178.155 6.04491 179.337
RightUpLeg  -2.53143 0.880284 1.87099
RightLeg  3.46783 9.37967 0.110994
RightFoot  -0.732027 -0.0194584 0.106727
RightToes  3.97569e-016 -3.18055e-015 -2.98177e-016
Spine  -0.0921416 0.784354 0.942297
Spine1  6.14756 1.08168 -1.02901
HEad  -9.32757 -4.23216 2.63055
LeftShoulder1  -3.88251e-019 9.70628e-020 -3.87848e-018
LeftArm  -28.027 57.8628 -70.9122
LeftForeArm  -2.98932 -13.0299 -2.96203
LeftHand  -0.635359 -3.32201 9.07211
RightShoulder  8.74006 11.0967 40.1719
RightArm  18.7105 -37.5139 19.3446
RightForeArm  4.71253 18.5765 -6.82992
RightHand  -1.18547 3.85726 -14.7258
LeftUpLeg  -0.807195 -3.18349 -4.35641
LeftLeg  3.04227 2.55401 1.74908
LeftFoot  -2.58887 -0.127334 1.3433
LeftToes  4.86531e-011 4.41684e-011 -2.86034e-011
282
root  7.20247 40.0657 -83.3889 178.044 5.66736 179.254
RightUpLeg  -2.39122 0.861095 1.77157
RightLeg  3.68367 9.10667 -0.0504839
RightFoot  -0.813668 -0.0053739 -0.00183424
RightToes  3.97569e-016 -3.18055e-015 -2.98177e-016
Spine  -0.371143 0.753584 0.600016
Spine1  6.52346 1.04666 -0.958954
HEad  -9.06407 -5.18782 2.85106
LeftShoulder1  -3.88251e-019 9.70628e-020 -3.87848e-018
LeftArm  -27.9739 57.3054 -71.3983
LeftForeArm  -2.8583 -13.5947 -3.10184
LeftHand  -0.608204 -3.12789 8.89262
RightShoulder  8.73991 11.097 40.1704
RightArm  19.0445 -37.3973 19.9648
RightForeArm  4.86223 18.6197 -6.79134
RightHand  -1.23527 4.13041 -14.9112
LeftUpLeg  -0.599011 -3.27724 -4.51055
LeftLeg  3.02634 2.31304 1.76721
LeftFoot  -2.674 -0.116433 1.22999
LeftToes  4.86531e-011 4.41684e-011 -2.86034e-011
283
root  7.18909 40.0646 -83.5655 178.073 5.16313 179.282
RightUpLeg  -2.33065 0.695887 1.65213
RightLeg  3.86733 8.79341 0.0157595
RightFoot  -1.0139 -0.0177034 0.124545
RightToes  3.97569e-016 -3.18055e-015 -2.98177e-016
Spine  -0.618139 0.663313 0.268557
Spine1  6.69102 0.902417 -0.703114
HEad  -8.3385 -6.66708 2.75953
LeftShoulder1  -3.88251e-019 9.70628e-020 -3.87848e-018
LeftArm  -28.0185 56.9998 -72.0302
LeftForeArm  -2.60591 -14.3908 -3.20188
LeftHand  -0.598776 -3.10581 8.78107
RightShoulder  8.70111 11.075 40.0372
RightArm  19.513 -37.5192 20.3034
RightForeArm  5.23195 18.7321 -6.91395
RightHand  -1.25175 4.31893 -14.8232
LeftUpLeg  -0.622377 -3.26425 -4.50241
LeftLeg  3.11569 1.83163 1.75199
LeftFoot  -2.65832 -0.104207 1.10146
LeftToes  4.86531e-011 4.41684e-011 -2.86034e-011
284
root  7.15793 40.0617 -83.541 178.179 4.60344 179.377
RightUpLeg  -2.25815 0.639233 1.65167
RightLeg  3.87416 8.31735 0.0449159
RightFoot  -1.0815 -0.0209975 0.158308
RightToes  3.97569e-016 -3.18055e-015 -2.98177e-016
Spine  -0.79109 0.596807 -0.0159189
Spine1  6.69672 0.747251 -0.319545
HEad  -7.58643 -8.04836 2.37333
LeftShoulder1  -3.88251e-019 9.70628e-020 -3.87848e-018
LeftArm  -28.3068 56.8481 -72.9532
LeftForeArm  -2.14619 -15.2718 -3.14111
LeftHand  -0.60997 -3.31727 8.72405
RightShoulder  8.5901 11.0105 39.6582
RightArm  19.8172 -37.891 20.4591
RightForeArm  5.88772 18.8357 -7.11586
RightHand  -1.23198 4.33136 -14.575
LeftUpLeg  -0.787115 -3.24286 -4.45576
LeftLeg  3.25712 1.23003 1.76945
LeftFoot  -2.56518 -0.110847 1.17007
LeftToes  4.86531e-011 4.41684e-011 -2.86034e-011
